<?xml version="1.0" standalone="no"?>
<!DOCTYPE svg PUBLIC "-//W3C//DTD SVG 20010904//EN"
 "http://www.w3.org/TR/2001/REC-SVG-20010904/DTD/svg10.dtd">
<svg version="1.0" xmlns="http://www.w3.org/2000/svg"
 width="500.000000pt" height="500.000000pt" viewBox="0 0 500.000000 500.000000"
 preserveAspectRatio="xMidYMid meet">

<g transform="translate(0.000000,500.000000) scale(0.100000,-0.100000)"
fill="#000000" stroke="none">
<path d="M3211 4729 c-148 -9 -442 -55 -596 -94 -398 -101 -819 -295 -1080
-499 -204 -159 -428 -391 -545 -565 -59 -88 -112 -205 -187 -411 -76 -209 -90
-264 -104 -420 -16 -177 -6 -635 15 -729 26 -112 71 -240 137 -388 153 -346
326 -576 576 -766 171 -130 437 -278 643 -358 222 -86 599 -181 759 -191 52
-3 55 -2 62 25 19 68 15 90 -15 107 -29 15 -99 128 -133 213 -14 35 -14 40 0
54 21 21 44 10 60 -29 24 -56 106 -178 121 -178 29 0 34 55 10 105 -20 44 -15
67 17 79 41 14 59 2 59 -39 0 -19 3 -35 8 -35 4 0 20 20 35 45 30 47 55 57 77
30 7 -8 21 -15 31 -15 38 0 27 -20 -47 -87 -108 -96 -125 -146 -83 -244 12
-27 22 -49 23 -50 0 0 102 -4 226 -9 150 -6 277 -6 380 2 l155 10 76 47 c76
45 77 47 84 96 4 28 9 250 10 495 2 245 6 600 10 790 4 190 3 408 -1 485 l-7
140 -70 49 -71 49 -180 9 c-175 10 -629 4 -672 -8 -16 -4 -30 -28 -54 -90
l-33 -84 12 -88 c7 -48 15 -90 19 -93 4 -4 50 -16 102 -28 72 -16 128 -21 235
-21 l140 0 64 -62 64 -63 -2 -140 c-2 -77 -6 -167 -9 -200 l-7 -60 -65 -8
c-91 -11 -196 -1 -357 33 -178 38 -249 63 -408 143 -125 62 -133 69 -221 163
-110 120 -140 164 -194 280 -48 102 -70 219 -69 374 0 122 16 192 70 313 62
136 149 236 289 330 160 108 289 165 466 206 l51 12 -26 62 c-21 52 -25 77
-25 157 0 80 5 110 32 189 38 112 40 150 10 178 -39 34 -50 38 -148 43 -94 5
-95 6 -55 18 22 7 78 15 126 19 73 5 92 3 132 -15 81 -36 81 -62 1 -252 -20
-49 -28 -87 -32 -158 -4 -86 9 -191 28 -222 6 -10 45 -8 186 9 99 13 237 26
308 30 125 8 129 9 152 37 l23 29 1 488 c0 383 -3 487 -12 487 -35 -1 -58 -14
-58 -34 0 -38 -38 -86 -86 -107 -52 -23 -135 -26 -237 -9 -78 14 -104 34 -62
50 14 5 31 10 36 10 5 0 26 17 47 38 59 59 103 89 150 102 l43 11 -35 39 c-37
41 -81 118 -72 127 3 3 23 -2 46 -11 22 -9 56 -16 75 -16 61 0 124 -36 146
-85 7 -14 8 -9 4 20 -14 97 -9 91 -99 119 -72 23 -98 26 -212 25 -71 -1 -189
-6 -263 -10z m-570 -171 c46 -15 107 -58 179 -124 37 -35 66 -54 75 -51 8 4
17 2 21 -4 3 -6 38 20 78 59 39 38 94 81 123 96 58 29 124 34 143 11 13 -16
11 -20 -37 -83 -24 -32 -33 -54 -33 -83 0 -33 -4 -41 -30 -54 l-31 -16 21 -26
c24 -31 26 -65 3 -103 -18 -31 -80 -70 -110 -70 -19 0 -58 37 -101 94 l-22 29
0 -36 c0 -20 -4 -39 -10 -42 -10 -6 -15 14 -11 50 1 14 -7 7 -25 -20 -60 -90
-88 -102 -151 -67 -73 39 -106 130 -62 171 l21 19 -24 13 c-30 16 -38 28 -38
62 0 34 -20 75 -49 101 -26 23 -27 61 -3 75 22 13 32 13 73 -1z m-381 -253 c0
-50 -14 -77 -23 -43 -9 31 -9 93 0 101 12 12 23 -16 23 -58z m-137 -30 c39
-35 45 -49 26 -61 -11 -6 -99 72 -99 88 0 19 38 5 73 -27z m332 10 c-101 -84
-157 -98 -73 -19 33 31 55 44 75 44 l28 -1 -30 -24z m-157 -85 c18 -11 40 -35
49 -55 34 -72 -23 -155 -107 -155 -60 1 -90 39 -90 115 0 56 12 80 48 99 37
21 61 19 100 -4z m1253 -46 c29 -27 34 -72 11 -104 l-21 -27 40 -12 c43 -13
66 -42 95 -118 19 -50 12 -93 -15 -93 -21 0 -42 22 -67 72 l-19 37 3 -153 c4
-189 -2 -220 -46 -224 -19 -2 -32 1 -32 8 0 7 -7 6 -21 -3 -11 -8 -29 -13 -39
-10 -33 9 -43 64 -38 229 2 85 3 154 1 154 -1 0 -12 -18 -23 -40 -22 -42 -62
-76 -80 -65 -19 12 -9 70 23 130 28 52 38 62 75 74 39 12 42 15 29 30 -36 41
-26 100 22 127 30 16 77 11 102 -12z m-1483 -30 c45 -13 20 -24 -53 -24 -68 0
-95 10 -62 23 17 8 88 8 115 1z m472 -10 c0 -3 -12 -9 -27 -15 -18 -7 -43 -6
-82 3 l-56 12 45 6 c46 5 120 1 120 -6z m-84 -196 c11 -17 -4 -20 -40 -8 -42
14 -54 27 -63 71 l-6 34 51 -44 c29 -23 55 -47 58 -53z m-326 53 c0 -14 -79
-81 -96 -81 -22 0 -7 22 40 59 39 32 56 38 56 22z m132 -77 c-4 -66 -17 -91
-28 -50 -9 37 4 118 19 113 8 -3 11 -24 9 -63z m512 -156 c84 -171 90 -186 90
-248 1 -52 -3 -71 -22 -97 -56 -79 -198 -98 -283 -38 -120 85 -109 239 25 371
62 61 86 109 86 173 0 12 3 21 8 21 4 0 47 -82 96 -182z m-700 -278 c0 -222 2
-315 5 -227 l6 147 63 80 c35 44 67 80 72 80 5 0 36 -39 69 -87 l61 -86 0
-144 0 -143 -132 -2 -133 -2 133 -3 c76 -2 132 -8 132 -13 0 -6 -217 -10 -595
-10 l-595 0 0 249 c0 137 -3 263 -6 280 -6 26 -3 33 12 38 11 2 33 26 49 51
47 73 76 83 232 80 150 -3 172 -13 208 -86 11 -22 27 -43 37 -45 16 -5 18 5
18 109 l0 114 183 -2 182 -3 -1 -375z m-989 -525 c10 -17 33 -37 50 -45 19
-10 33 -26 39 -47 6 -17 18 -34 28 -36 23 -6 39 -46 26 -69 -7 -14 -22 -18
-68 -18 -44 0 -60 -4 -60 -14 0 -7 -7 -20 -17 -27 -15 -13 -16 -11 -9 14 5 23
3 27 -14 27 -29 0 -60 -18 -60 -35 0 -15 -18 -30 -26 -22 -3 3 -1 15 6 26 8
16 8 21 -2 21 -7 0 -19 -15 -26 -32 -24 -57 -35 -78 -44 -78 -11 0 -10 7 6 38
31 61 30 69 -12 76 -52 8 -74 34 -70 82 2 31 9 43 35 59 21 13 32 28 33 43 0
13 11 34 25 48 22 22 32 25 82 22 52 -3 60 -6 78 -33z m1087 -12 c27 -24 23
-69 -8 -98 -15 -14 -32 -25 -38 -25 -6 0 -40 -18 -76 -40 -74 -46 -102 -49
-185 -20 -32 11 -76 20 -97 20 -32 0 -39 3 -36 18 2 12 16 18 48 22 l45 5 -35
12 c-71 23 -98 25 -125 7 -20 -13 -29 -14 -38 -5 -6 6 -7 11 -3 11 5 0 3 7 -4
15 -14 17 -5 35 19 35 9 0 21 4 27 8 5 5 43 16 84 26 l76 18 72 -36 c39 -20
82 -36 96 -36 13 0 46 18 73 39 53 44 77 49 105 24z m-477 -203 c32 -11 75
-20 97 -20 31 0 38 -4 38 -19 0 -21 -32 -33 -70 -25 -19 4 -22 3 -10 -5 8 -6
38 -16 66 -22 44 -10 54 -9 78 6 30 20 41 14 51 -27 6 -25 5 -28 -19 -28 -14
0 -26 -4 -26 -10 0 -5 -9 -10 -20 -10 -11 0 -47 -7 -80 -17 l-60 -16 -78 36
c-89 42 -112 45 -137 17 -10 -11 -23 -20 -30 -20 -7 0 -20 -9 -30 -20 -35 -38
-95 -13 -95 40 0 32 27 59 95 93 28 14 64 35 80 46 38 26 76 26 150 1z m-659
-55 c-4 -14 -11 -25 -16 -25 -13 0 -13 16 1 42 14 26 23 16 15 -17z m34 -17
c0 -19 -18 -43 -25 -36 -9 9 4 48 16 48 5 0 9 -6 9 -12z m-90 -6 c0 -5 -7 -17
-15 -28 -14 -19 -14 -19 -15 2 0 11 3 24 7 27 9 10 23 9 23 -1z m319 -126 c14
-16 1 -51 -21 -59 -9 -3 -7 -11 8 -27 16 -16 24 -19 29 -9 5 8 4 10 -4 5 -18
-11 -26 24 -8 41 19 19 40 7 34 -18 -3 -11 -1 -19 4 -19 5 0 9 -7 9 -15 0 -13
-12 -19 -32 -16 -4 0 -4 -7 -1 -16 4 -11 8 -13 11 -5 8 24 29 11 30 -18 1 -32
-14 -41 -21 -12 -4 13 -5 12 -6 -5 -1 -29 -43 -77 -100 -115 -25 -17 -61 -45
-79 -62 -31 -29 -34 -30 -59 -16 -64 37 -52 88 32 130 l50 25 5 63 c6 70 27
98 64 86 18 -6 19 -5 7 10 -11 13 -11 20 3 41 19 29 29 31 45 11z m-283 -31
c6 -14 8 -13 19 1 17 24 45 11 45 -20 0 -14 -7 -29 -16 -34 -13 -7 -14 -13 -5
-31 17 -30 7 -53 -39 -90 -43 -34 -46 -47 -28 -115 10 -38 9 -48 -6 -71 -23
-34 -39 -40 -73 -23 -25 12 -28 19 -30 68 0 30 -2 87 -4 127 -2 56 1 77 16
100 11 15 18 37 16 47 -2 14 2 17 13 13 10 -4 16 -1 16 8 0 8 7 15 15 15 8 0
15 -9 15 -20 0 -11 -6 -20 -14 -20 -8 0 -17 -3 -19 -7 -3 -5 19 -8 47 -8 46 0
52 2 48 18 -3 13 -8 15 -15 8 -19 -19 -37 -12 -37 12 0 37 25 52 36 22z m-114
-60 c0 -5 -5 -11 -11 -13 -6 -2 -11 4 -11 13 0 9 5 15 11 13 6 -2 11 -8 11
-13z m1036 -32 l37 -17 -80 -7 c-85 -7 -146 -26 -201 -60 -44 -27 -43 -9 1 40
53 59 165 79 243 44z m1302 -23 c15 -16 33 -30 38 -30 17 0 52 -51 52 -76 0
-14 -4 -32 -9 -42 -6 -9 -12 -29 -15 -44 -10 -43 -32 -58 -89 -59 -29 0 -65
-1 -80 -1 -36 -1 -56 19 -59 57 -1 17 -8 39 -15 50 -19 29 -16 66 9 92 12 13
25 23 30 23 5 0 21 14 35 30 15 19 34 30 50 30 15 0 36 -12 53 -30z m397 -35
c9 -7 13 -17 8 -24 -9 -16 -45 35 -44 64 0 17 2 17 10 -4 5 -13 17 -30 26 -36z
m-1597 6 c0 -5 -11 -12 -25 -15 -14 -4 -25 -11 -25 -16 0 -6 -4 -10 -10 -10
-14 0 -13 23 2 38 14 14 58 16 58 3z m-359 -61 c18 0 19 -2 9 -15 -16 -19 -35
-19 -54 1 -23 22 -20 37 3 24 11 -5 30 -10 42 -10z m340 -81 c-7 -22 -28 -57
-47 -77 l-36 -37 5 37 c3 20 17 54 31 75 14 21 26 49 26 64 0 39 14 45 24 10
6 -21 5 -45 -3 -72z m1603 55 c0 -16 5 -20 22 -16 50 9 114 -53 114 -111 0
-33 -18 -47 -63 -47 -33 0 -37 -2 -28 -14 7 -8 22 -17 34 -20 14 -3 30 -21 41
-43 l18 -38 -34 32 c-18 17 -46 37 -61 42 -19 7 -27 17 -25 29 1 10 -7 30 -18
45 -20 25 -22 25 -27 7 -3 -10 1 -24 8 -30 9 -7 10 -21 5 -46 -12 -53 -20 -53
-20 -1 0 25 -4 49 -10 52 -15 9 -12 43 3 52 8 4 16 26 20 48 3 22 3 34 0 28
-7 -18 -30 -16 -37 3 -3 8 -1 24 5 35 14 27 54 22 53 -7z m120 1 c3 -9 18 -15
38 -15 18 0 40 -5 48 -10 12 -8 10 -10 -8 -10 -13 0 -32 -5 -42 -10 -15 -8
-21 -6 -30 10 -6 12 -21 20 -37 20 -21 0 -24 2 -13 15 7 8 18 15 25 15 7 0 15
-7 19 -15z m-207 -21 c19 -20 22 -29 12 -38 -8 -8 -13 -7 -17 3 -3 8 -16 25
-30 38 -21 19 -22 23 -7 23 10 0 29 -12 42 -26z m-1778 -105 c50 -11 101 -44
101 -65 0 -10 -12 -14 -40 -14 -73 0 -121 39 -156 127 l-15 38 33 -38 c24 -27
45 -41 77 -48z m2029 49 c7 -7 12 -19 12 -29 0 -9 9 -28 20 -42 28 -36 25 -42
-11 -17 -17 13 -28 28 -25 36 3 7 1 16 -4 19 -6 3 -15 15 -20 26 -12 22 8 27
28 7z m-1887 -88 c23 -13 25 -33 4 -50 -12 -10 -15 -10 -15 3 0 8 -7 20 -15
27 -8 7 -12 16 -9 21 7 11 11 11 35 -1z m-680 -89 c23 -19 24 -25 27 -183 3
-155 4 -164 27 -188 33 -35 40 -87 18 -130 -44 -86 -150 -106 -218 -40 -57 56
-56 130 5 185 21 19 21 24 14 151 -9 178 7 223 77 224 15 0 37 -9 50 -19z
m149 -61 c0 -5 -18 -10 -39 -10 -22 0 -43 5 -46 10 -4 6 12 10 39 10 25 0 46
-4 46 -10z m788 -32 c-5 -13 -84 -37 -271 -81 -195 -46 -223 -76 -145 -150 24
-23 89 -66 145 -95 110 -58 223 -145 254 -195 12 -21 19 -50 19 -84 0 -44 -5
-58 -31 -88 -86 -98 -273 -183 -425 -192 -90 -6 -294 5 -294 16 0 4 39 24 88
45 134 59 190 96 223 145 56 85 31 142 -124 285 -102 94 -147 162 -147 222 0
111 210 181 553 183 123 1 158 -2 155 -11z m-794 -24 c31 -12 16 -24 -29 -24
-33 0 -45 4 -45 15 0 16 43 21 74 9z m16 -85 c0 -5 -20 -9 -45 -9 -40 0 -54 7
-41 21 9 8 86 -3 86 -12z m2350 -25 l32 -37 39 39 39 38 30 -29 30 -28 -41
-35 -40 -35 40 -41 41 -42 -29 -28 -29 -28 -35 36 c-20 20 -38 36 -41 36 -3 0
-23 -15 -44 -34 l-37 -34 -30 24 -30 23 40 41 39 40 -39 40 -39 40 24 25 c31
33 42 32 80 -11z m-2350 -44 c0 -5 -20 -10 -45 -10 -25 0 -45 5 -45 10 0 6 20
10 45 10 25 0 45 -4 45 -10z m925 -18 c27 -17 32 -17 52 -4 33 21 89 19 120
-4 16 -12 34 -39 41 -62 13 -38 12 -46 -7 -84 -33 -69 -134 -193 -159 -196
-30 -5 -165 117 -192 173 -27 55 -26 115 1 149 38 48 93 58 144 28z m1419
-249 l34 -37 45 37 44 36 27 -28 26 -27 -41 -39 -41 -38 41 -37 41 -38 -21
-26 c-27 -34 -36 -33 -79 9 l-36 35 -34 -35 c-40 -41 -49 -43 -79 -11 l-22 23
35 38 c20 21 36 41 36 44 0 4 -16 22 -35 41 l-35 34 27 28 c15 15 28 28 29 28
2 0 18 -17 38 -37z m-568 -78 c42 -8 90 -55 114 -110 19 -43 22 -46 49 -40 36
8 88 -13 120 -48 28 -30 40 -112 22 -145 -10 -18 -8 -24 16 -39 16 -10 32 -22
36 -28 12 -15 -1 -142 -18 -175 -24 -46 -74 -82 -108 -77 -27 4 -31 0 -45 -35
-26 -66 -83 -64 -198 7 -39 25 -79 45 -87 45 -9 0 -37 -11 -63 -25 -56 -30
-94 -31 -153 -5 -54 25 -72 25 -113 0 -64 -39 -154 -19 -178 41 -9 22 -26 37
-56 49 -27 12 -49 30 -58 49 -18 34 -21 67 -6 76 16 10 50 82 50 106 0 11 -9
34 -20 49 -77 108 -53 158 79 169 42 4 66 11 71 21 4 8 13 27 20 42 20 43 89
71 160 66 48 -3 64 -10 94 -36 20 -18 39 -32 41 -32 2 0 21 14 40 32 36 31
115 60 145 53 8 -2 29 -6 46 -10z m574 -240 l34 -35 38 37 c40 39 57 39 82 0
8 -13 3 -24 -27 -55 l-37 -38 40 -39 40 -39 -22 -23 c-29 -31 -38 -29 -78 12
l-34 35 -41 -40 -41 -40 -27 28 -27 28 35 34 c19 19 35 37 35 42 0 4 -17 23
-37 42 l-38 34 24 26 c32 34 40 33 81 -9z m-1566 -158 c9 -36 7 -115 -4 -122
-6 -4 -7 -13 -1 -23 11 -21 9 -212 -2 -229 -10 -15 -40 -17 -65 -4 -9 5 -25
12 -35 15 -9 3 -20 14 -24 23 -4 10 -17 28 -30 41 -16 15 -22 29 -18 41 3 11
2 22 -3 25 -12 7 -12 115 -1 122 5 3 9 14 9 25 0 10 9 27 20 36 11 10 20 23
20 30 0 13 99 53 116 46 7 -2 15 -14 18 -26z m107 17 c43 -15 89 -66 89 -99 0
-8 5 -17 11 -20 6 -4 9 -21 8 -39 -2 -17 0 -37 4 -43 5 -7 3 -21 -3 -32 -5
-11 -10 -31 -10 -45 0 -14 -8 -31 -18 -38 -11 -7 -24 -22 -30 -34 -6 -11 -32
-29 -58 -39 l-47 -18 -19 23 c-11 14 -17 32 -14 44 3 12 5 68 5 126 -1 259 -7
245 82 214z m1329 -309 c39 -97 99 -133 134 -80 19 29 70 34 102 10 19 -15 18
-16 -8 -36 -21 -15 -28 -29 -28 -55 0 -23 -9 -44 -29 -66 -27 -31 -34 -33 -93
-32 -63 0 -134 25 -123 44 3 4 20 12 37 15 l32 7 -26 14 c-14 7 -31 28 -37 45
-18 53 -12 189 9 189 4 0 18 -25 30 -55z"/>
<path d="M2890 4335 c0 -37 12 -85 21 -85 5 0 9 24 9 53 0 41 -4 54 -15 54 -9
0 -15 -9 -15 -22z"/>
<path d="M3483 4013 c9 -2 25 -2 35 0 9 3 1 5 -18 5 -19 0 -27 -2 -17 -5z"/>
<path d="M2581 3500 c15 -22 79 -69 79 -57 0 2 -21 22 -47 43 -38 31 -45 34
-32 14z"/>
<path d="M1740 3740 c37 -12 330 -12 330 0 0 6 -65 10 -177 9 -105 -1 -168 -4
-153 -9z"/>
<path d="M1880 3655 c0 -8 7 -15 15 -15 8 0 15 7 15 15 0 8 -7 15 -15 15 -8 0
-15 -7 -15 -15z"/>
<path d="M1960 3655 c0 -8 7 -15 15 -15 8 0 15 7 15 15 0 8 -7 15 -15 15 -8 0
-15 -7 -15 -15z"/>
<path d="M1704 3340 c0 -146 2 -205 3 -132 2 72 2 192 0 265 -1 72 -3 13 -3
-133z"/>
<path d="M1880 3575 c0 -8 7 -15 15 -15 8 0 15 7 15 15 0 8 -7 15 -15 15 -8 0
-15 -7 -15 -15z"/>
<path d="M1960 3575 c0 -8 7 -15 15 -15 8 0 15 7 15 15 0 8 -7 15 -15 15 -8 0
-15 -7 -15 -15z"/>
<path d="M1185 3530 c7 -12 424 -12 470 0 17 4 -84 8 -223 9 -167 1 -251 -2
-247 -9z"/>
<path d="M1880 3485 c0 -8 7 -15 15 -15 8 0 15 7 15 15 0 8 -7 15 -15 15 -8 0
-15 -7 -15 -15z"/>
<path d="M1960 3485 c0 -8 7 -15 15 -15 8 0 15 7 15 15 0 8 -7 15 -15 15 -8 0
-15 -7 -15 -15z"/>
<path d="M1270 3471 l-25 -7 25 -7 c40 -11 80 -8 80 6 0 14 -42 18 -80 8z"/>
<path d="M1380 3466 c0 -8 -6 -16 -13 -19 -8 -3 -11 -19 -9 -46 5 -55 22 -52
22 4 l0 45 50 0 c38 0 50 4 50 15 0 11 -12 15 -50 15 -36 0 -50 -4 -50 -14z"/>
<path d="M1506 3471 c5 -5 25 -10 44 -11 50 -3 60 -1 60 10 0 6 -26 10 -57 10
-35 0 -53 -4 -47 -9z"/>
<path d="M1230 3400 c0 -27 5 -50 10 -50 6 0 10 23 10 50 0 28 -4 50 -10 50
-5 0 -10 -22 -10 -50z"/>
<path d="M1484 3428 c3 -13 6 -33 6 -45 0 -13 5 -23 10 -23 6 0 10 20 10 45 0
35 -4 45 -16 45 -12 0 -15 -6 -10 -22z"/>
<path d="M1615 3408 c11 -65 25 -70 25 -10 0 41 -3 52 -16 52 -13 0 -15 -7 -9
-42z"/>
<path d="M1880 3405 c0 -8 7 -15 15 -15 8 0 15 7 15 15 0 8 -7 15 -15 15 -8 0
-15 -7 -15 -15z"/>
<path d="M1260 3340 c0 -5 20 -10 45 -10 25 0 45 5 45 10 0 6 -20 10 -45 10
-25 0 -45 -4 -45 -10z"/>
<path d="M1390 3340 c0 -5 20 -10 45 -10 25 0 45 5 45 10 0 6 -20 10 -45 10
-25 0 -45 -4 -45 -10z"/>
<path d="M1520 3340 c0 -5 20 -10 45 -10 25 0 45 5 45 10 0 6 -20 10 -45 10
-25 0 -45 -4 -45 -10z"/>
<path d="M1627 3333 c-11 -10 -8 -101 3 -108 6 -4 10 17 10 54 0 62 -1 66 -13
54z"/>
<path d="M1880 3325 c0 -8 7 -15 15 -15 8 0 15 7 15 15 0 8 -7 15 -15 15 -8 0
-15 -7 -15 -15z"/>
<path d="M1230 3269 c0 -31 4 -48 10 -44 6 3 10 26 10 51 0 24 -4 44 -10 44
-5 0 -10 -23 -10 -51z"/>
<path d="M1360 3275 c0 -25 5 -45 10 -45 6 0 10 20 10 45 0 25 -4 45 -10 45
-5 0 -10 -20 -10 -45z"/>
<path d="M1490 3275 c0 -25 5 -45 10 -45 6 0 10 20 10 45 0 25 -4 45 -10 45
-5 0 -10 -20 -10 -45z"/>
<path d="M1880 3245 c0 -8 7 -15 15 -15 8 0 15 7 15 15 0 8 -7 15 -15 15 -8 0
-15 -7 -15 -15z"/>
<path d="M1780 3235 c0 -8 7 -15 15 -15 8 0 15 7 15 15 0 8 -7 15 -15 15 -8 0
-15 -7 -15 -15z"/>
<path d="M1260 3210 c0 -5 20 -10 45 -10 25 0 45 5 45 10 0 6 -20 10 -45 10
-25 0 -45 -4 -45 -10z"/>
<path d="M1390 3210 c0 -5 20 -10 45 -10 25 0 45 5 45 10 0 6 -20 10 -45 10
-25 0 -45 -4 -45 -10z"/>
<path d="M1520 3210 c0 -5 20 -10 45 -10 25 0 45 5 45 10 0 6 -20 10 -45 10
-25 0 -45 -4 -45 -10z"/>
<path d="M1628 3204 c-5 -4 -8 -32 -7 -63 1 -53 1 -54 10 -22 11 37 8 97 -3
85z"/>
<path d="M1230 3146 c0 -31 5 -56 10 -56 6 0 10 22 10 49 0 28 -4 53 -10 56
-6 4 -10 -15 -10 -49z"/>
<path d="M1360 3138 c0 -38 3 -49 10 -38 13 20 13 90 0 90 -5 0 -10 -24 -10
-52z"/>
<path d="M1491 3138 c0 -39 3 -48 9 -33 12 28 12 85 0 85 -5 0 -10 -24 -9 -52z"/>
<path d="M1780 3155 c0 -8 7 -15 15 -15 8 0 15 7 15 15 0 8 -7 15 -15 15 -8 0
-15 -7 -15 -15z"/>
<path d="M1880 3155 c0 -8 7 -15 15 -15 8 0 15 7 15 15 0 8 -7 15 -15 15 -8 0
-15 -7 -15 -15z"/>
<path d="M3120 2317 c0 -7 7 -22 15 -34 28 -40 115 -19 115 29 0 29 -28 20
-47 -15 -9 -17 -11 -17 -27 7 -17 27 -56 36 -56 13z"/>
<path d="M3212 2252 c-17 -11 -5 -40 20 -48 11 -3 31 -3 45 1 l26 6 -23 25
c-24 25 -45 30 -68 16z"/>
<path d="M3104 2233 c-16 -16 -15 -18 4 -26 16 -7 28 -5 47 7 25 17 26 17 19
-8 -6 -27 12 -70 27 -61 15 10 10 59 -10 83 -23 26 -63 29 -87 5z"/>
<path d="M1137 1773 c-4 -3 -7 -33 -7 -66 0 -48 -4 -64 -25 -89 -42 -50 -31
-114 26 -143 25 -13 37 -14 65 -5 66 22 85 93 39 148 -21 25 -25 40 -25 96 l0
66 -33 0 c-19 0 -37 -3 -40 -7z"/>
<path d="M3737 4499 c-29 -17 -10 -28 28 -16 19 5 32 14 29 19 -7 11 -35 10
-57 -3z"/>
</g>
</svg>
